# xmcd
#
# Track frame offsets: 
#        150
#        40004
#        65746
#        97722
#        122020
#        147509
#        173001
#        196982
#        221404
#        248805
#
# Disc length: 3760 seconds
#
# Revision: 0
# Processed by: cddbd v1.5.2PL0 Copyright (c) Steve Scherf et al.
# Submitted via: ExactAudioCopy v1.0b3
#
DISCID=880eae0a
DTITLE=Hung Cuong - Ong Lai Do
DYEAR=1997
DGENRE=
TTITLE0=Ong lai do
TTITLE1=Vong ngay xanh
TTITLE2=Khong ai hieu long toi
TTITLE3=Ben cau bien gioi
TTITLE4=Ve tham xu lanh
TTITLE5=Ai ve song Tuong
TTITLE6=Nang chieu
TTITLE7=Trang Cam Ly
TTITLE8=Thuy da di roi
TTITLE9=Tinh trang Ben Hai
EXTD=
EXTT0=
EXTT1=
EXTT2=
EXTT3=
EXTT4=
EXTT5=
EXTT6=
EXTT7=
EXTT8=
EXTT9=
PLAYORDER=
